<?xml version="1.0" standalone="no"?>
<!DOCTYPE svg PUBLIC "-//W3C//DTD SVG 20010904//EN"
 "http://www.w3.org/TR/2001/REC-SVG-20010904/DTD/svg10.dtd">
<svg version="1.0" xmlns="http://www.w3.org/2000/svg"
 width="128.000000pt" height="128.000000pt" viewBox="0 0 128.000000 128.000000"
 preserveAspectRatio="xMidYMid meet">

<g transform="translate(0.000000,128.000000) scale(0.100000,-0.100000)"
fill="#000000" stroke="none">
<path d="M259 1267 c-103 -29 -181 -96 -228 -197 l-26 -55 0 -375 0 -375 33
-67 c38 -77 92 -130 171 -167 l56 -26 375 0 375 0 67 33 c77 38 130 92 167
171 l26 56 0 375 0 375 -26 56 c-37 79 -90 133 -167 171 l-67 33 -355 2 c-261
2 -367 -1 -401 -10z m622 -318 c14 -14 19 -29 15 -47 -14 -79 -15 -133 -1
-297 8 -99 22 -214 30 -255 19 -94 19 -107 0 -107 -9 0 -19 16 -26 41 -6 23
-14 57 -19 76 -5 19 -24 78 -41 130 -25 75 -32 118 -36 208 -3 61 -10 112 -14
112 -16 0 -39 -59 -54 -135 -17 -88 -20 -95 -45 -95 -26 0 -44 38 -71 151 -22
92 -22 93 -35 64 -11 -28 -18 -216 -12 -320 l3 -40 -42 -3 c-37 -3 -44 0 -54
22 -7 14 -8 37 -4 53 3 15 8 55 10 88 7 116 52 271 93 318 21 24 51 22 56 -5
3 -13 13 -70 22 -128 9 -58 20 -111 24 -119 10 -19 43 92 41 142 -1 44 38 128
71 151 31 22 64 20 89 -5z m-604 -98 c18 -51 43 -135 54 -185 12 -50 26 -97
31 -103 6 -7 23 -13 39 -13 34 0 41 -29 9 -37 -11 -3 -20 -13 -20 -23 0 -14
76 -188 96 -222 2 -3 -2 -5 -10 -4 -19 3 -48 40 -71 91 -10 22 -35 64 -54 92
-43 62 -68 67 -120 23 -30 -26 -34 -34 -37 -90 -3 -68 -15 -90 -50 -90 -50 0
-63 41 -30 95 19 30 25 75 14 107 -8 23 -5 44 12 97 13 40 22 96 22 137 1 38
8 84 15 103 8 19 11 45 8 62 -8 36 10 61 39 57 16 -2 27 -23 53 -97z m925 -3
c9 -18 18 -45 21 -60 3 -21 0 -26 -15 -25 -11 1 -16 7 -14 14 3 8 -2 13 -13
13 -10 0 -24 7 -31 15 -22 26 -85 19 -115 -12 -48 -53 -32 -88 78 -163 56 -38
97 -103 97 -153 0 -33 -30 -95 -59 -121 -25 -23 -131 -36 -131 -17 0 8 11 10
34 5 47 -8 91 19 111 68 19 49 19 57 -4 111 -16 37 -32 52 -95 92 -93 58 -116
85 -116 136 0 31 8 48 34 76 28 31 42 38 87 44 108 13 113 12 131 -23z"/>
<path d="M217 783 c-4 -3 -7 -45 -7 -93 0 -84 1 -87 30 -108 36 -27 55 -29 45
-4 -4 9 -17 59 -30 111 -25 98 -28 105 -38 94z"/>
</g>
</svg>
